/* XPM */
static char *a1871811f680403c829d4fcb0329f303HjMPHuK7BO5QPQwj[] = {
/* columns rows colors chars-per-pixel */
"64 64 89 1 ",
"  c #868AFF",
". c #858AFF",
"X c #878BFF",
"o c #8D91FF",
"O c #8E92FF",
"+ c #8F92FF",
"@ c #8E91FF",
"# c #8589FF",
"$ c #9498FF",
"% c #DFE0FF",
"& c #E6E7FF",
"* c #E4E5FF",
"= c #DBDCFF",
"- c #9598FF",
"; c #989BFF",
": c #F3F4FF",
"> c #C5C7FF",
", c #A1A4FF",
"< c #A3A6FF",
"1 c #A0A3FF",
"2 c #8B8EFF",
"3 c #F2F2FF",
"4 c #B1B4FF",
"5 c #8286FF",
"6 c #8488FF",
"7 c #B6B9FF",
"8 c #8A8EFF",
"9 c #8C90FF",
"0 c #888CFF",
"q c #979BFF",
"w c #EFF0FF",
"e c #ECECFF",
"r c #E1E2FF",
"t c #E4E4FF",
"y c #E0E1FF",
"u c #A2A5FF",
"i c #8B8FFF",
"p c #A8ABFF",
"a c #AAACFF",
"s c #E5E6FF",
"d c #A7AAFF",
"f c #9194FF",
"g c #D9DAFF",
"h c #AFB1FF",
"j c #D4D5FF",
"k c #D3D4FF",
"l c #D3D5FF",
"z c #F2F3FF",
"x c #BDC0FF",
"c c #BDBFFF",
"v c #BCBEFF",
"b c #BBBDFF",
"n c #BABCFF",
"m c #8387FF",
"M c #9295FF",
"N c #ACAEFF",
"B c #BEC0FF",
"V c #C3C5FF",
"C c #B3B5FF",
"Z c #EAEBFF",
"A c #E9E9FF",
"S c #CDCFFF",
"D c #D8DAFF",
"F c #B4B6FF",
"G c #9DA1FF",
"H c #CBCDFF",
"J c #CACCFF",
"K c #9EA2FF",
"L c #ABADFF",
"P c GhostWhite",
"I c #A4A7FF",
"U c #969AFF",
"Y c #E9EAFF",
"T c #DEE0FF",
"R c #A6A9FF",
"E c #9396FF",
"W c #9296FF",
"Q c #A5A8FF",
"! c #DEDFFF",
"~ c #EAEAFF",
"^ c #979AFF",
"/ c #9FA3FF",
"( c #D7D8FF",
") c #ECEDFF",
"_ c #E2E3FF",
"` c #E2E2FF",
"' c #898DFF",
"] c #AAADFF",
"[ c white",
/* pixels */
"                                                                ",
"                                                                ",
"                                                                ",
"                                                                ",
"                                                                ",
"                                                                ",
"                                                                ",
"                                                                ",
"                                                                ",
"                                                                ",
"                                                                ",
"                                                                ",
"                                                                ",
"                                                                ",
"                                                                ",
"                                                                ",
"                                                                ",
"                                                                ",
"                                                                ",
"                                                                ",
"                                                                ",
"                                                                ",
"                            ........                            ",
"                          XoO+++++++@X                          ",
"                         #$%&*******=-#                         ",
"                         #;:>,<<<<<<12                          ",
"                         #;3456666666                           ",
"                         #;37899999990                          ",
"                         #qwerrttrrryu#                         ",
"                          i<ppassappdf#                         ",
"                           666 gg 666#                          ",
"                       #hjkkkklzzlkkkkjh#                       ",
"                        <xccvbbnnbbvccx<                        ",
"                        #66mMNBVVBNMm66#                        ",
"                          XCZAgSSDAZFX                          ",
"                         #GzHM0##0MJ:K#                         ",
"                         6LPI5#  #5<PN6                         ",
"                         #UYTRE99WQ!~^#                         ",
"                           /()Y_`Ae(1                           ",
"                           #';R]]R;'#                           ",
"                             #6666#                             ",
"                                                                ",
"                                                                ",
"                                                                ",
"                                                                ",
"                                                                ",
"                                                                ",
"                                                                ",
"                                                                ",
"                                                                ",
"                                                                ",
"                                                                ",
"                                                                ",
"                                                                ",
"                                                                ",
"                                                                ",
"                                                                ",
"                                                                ",
"                                                                ",
"                                                                ",
"                                                                ",
"                                                                ",
"                                                                ",
"                                                                "
};
