/* XPM */
static char *_986e4c9837a4e44e1490c9143480038Xb5X6sUZi8IiVfUX[] = {
/* columns rows colors chars-per-pixel */
"64 64 63 1 ",
"  c #5EFFE4",
". c #5CFFE4",
"X c #5DFFE4",
"o c #63FFE5",
"O c #7FFFE9",
"+ c #6BFFE6",
"@ c #7EFFE9",
"# c #74FFE8",
"$ c #E7FFFB",
"% c #95FFED",
"& c #59FFE3",
"* c #5BFFE4",
"= c #92FFED",
"- c #E6FFFB",
"; c #75FFE8",
": c #EEFFFC",
"> c #B8FFF3",
", c #8DFFEC",
"< c #8FFFEC",
"1 c #B7FFF3",
"2 c #EDFFFC",
"3 c #D5FFF8",
"4 c #D6FFF8",
"5 c #E5FFFB",
"6 c #9BFFEE",
"7 c #5FFFE4",
"8 c #62FFE5",
"9 c #99FFEE",
"0 c #ECFFFC",
"q c #76FFE8",
"w c #F0FFFD",
"e c #CDFFF7",
"r c #ADFFF1",
"t c #AEFFF1",
"y c #CCFFF6",
"u c #B0FFF2",
"i c #BCFFF4",
"p c #65FFE5",
"a c #6AFFE6",
"s c #A1FFEF",
"d c #DEFFF9",
"f c #DCFFF9",
"g c #E2FFFA",
"h c #71FFE7",
"j c #82FFEA",
"k c #81FFEA",
"l c #80FFEA",
"z c #83FFEA",
"x c #D9FFF9",
"c c #61FFE5",
"v c #6DFFE6",
"b c #D1FFF7",
"n c #69FFE6",
"m c #DDFFF9",
"M c #E0FFFA",
"N c #DBFFF9",
"B c #A7FFF0",
"V c #7AFFE9",
"C c #8EFFEC",
"Z c #90FFEC",
"A c #EFFFFC",
"S c #72FFE7",
"D c white",
/* pixels */
"                                                                ",
"                                                                ",
"                                                                ",
"                                                                ",
"                                                                ",
"                                                                ",
"                                                                ",
"                                                                ",
"                                                                ",
"                                                                ",
"                                                                ",
"                                                                ",
"                                                                ",
"                                                                ",
"                                                                ",
"                                                                ",
"                                                                ",
"                                                                ",
"                                                                ",
"                                                                ",
"                                                                ",
"                           .X      X.                           ",
"                          oO+X    X+@o                          ",
"                         X#$%&****&=-#X                         ",
"                         X;:>,<<<<,12;X                         ",
"                         X;:-3444435:;X                         ",
"                         X;2678888790;X                         ",
"                         .qwerttttrywq.                         ",
"                         .+uiiiiiiiiu+.                         ",
"                        p++aaaaaaaaaa++p                        ",
"                       XsdfffffggfffffdsX                       ",
"                        hjklllzxxzllkkjh                        ",
"                        X.caaavbbvaan .X                        ",
"                         .<fmmm::mfMN;X                         ",
"                         X+llllOOl@BwV.                         ",
"                          X.......&C:V.                         ",
"                                  *<:V.                         ",
"                                  *ZAV.                         ",
"                                  XS9nX                         ",
"                                   X*                           ",
"                                                                ",
"                                                                ",
"                                                                ",
"                                                                ",
"                                                                ",
"                                                                ",
"                                                                ",
"                                                                ",
"                                                                ",
"                                                                ",
"                                                                ",
"                                                                ",
"                                                                ",
"                                                                ",
"                                                                ",
"                                                                ",
"                                                                ",
"                                                                ",
"                                                                ",
"                                                                ",
"                                                                ",
"                                                                ",
"                                                                ",
"                                                                "
};
