/* XPM */
static char *_73dd9dce70e4edddcf910ee6d564915w20DZUCR2fnYWKSQ[] = {
/* columns rows colors chars-per-pixel */
"64 64 95 2 ",
"   c #75CA4D",
".  c #74CA4C",
"X  c #78CB51",
"o  c #81CF5D",
"O  c #79CB52",
"+  c #89D267",
"@  c #BFE6AC",
"#  c #74C94B",
"$  c #8DD36C",
"%  c #E0F3D7",
"&  c #95D677",
"*  c #73C94B",
"=  c #73C94A",
"-  c #98D87B",
";  c #F5FBF2",
":  c #98D77A",
">  c #92D572",
",  c #F3FAEF",
"<  c #9BD97E",
"1  c #F2FAEF",
"2  c #97D779",
"3  c #91D571",
"4  c #F2FAEE",
"5  c #9BD87E",
"6  c #99D87C",
"7  c #76CB4F",
"8  c #77CB50",
"9  c #F7FCF5",
"0  c #E2F4D9",
"q  c #D9F0CE",
"w  c #B1E19A",
"e  c #99D87B",
"r  c #70C847",
"t  c #74CA4B",
"y  c #76CA4E",
"u  c #76CA4F",
"i  c #BBE5A8",
"p  c #A4DC8A",
"a  c #92D573",
"s  c #F6FBF3",
"d  c #C8EAB8",
"f  c #B2E19B",
"g  c #B2E19C",
"h  c #B9E4A4",
"j  c #C2E8B1",
"k  c #CEECC0",
"l  c #C1E7AE",
"z  c #9DD981",
"x  c #71C847",
"c  c #87D164",
"v  c #C7EAB7",
"b  c #CEECBF",
"n  c #CDECBE",
"m  c #CCEBBD",
"M  c #C9EAB9",
"N  c #C3E8B2",
"B  c #B8E4A3",
"V  c #9FDA83",
"C  c #75CA4C",
"Z  c #71C848",
"A  c #78CB50",
"S  c #79CC53",
"D  c #86D163",
"F  c #A8DE8F",
"G  c #83CF5F",
"H  c #75CA4E",
"J  c #B6E3A1",
"K  c #DDF2D3",
"L  c #DAF1CF",
"P  c #D4EFC8",
"I  c #8DD36D",
"U  c #D0EDC2",
"Y  c #E0F3D8",
"T  c #A2DB88",
"R  c #A2DB87",
"E  c #A1DB85",
"W  c #B5E3A0",
"Q  c #CFEDC2",
"!  c #8FD46E",
"~  c #F0F9EB",
"^  c #CFEDC1",
"/  c #72C949",
"(  c #8FD46F",
")  c #D8F0CD",
"_  c #8ED46D",
"`  c #A5DC8B",
"'  c #C1E7B0",
"]  c #EBF7E5",
"[  c #E3F4DA",
"{  c #E2F4DA",
"}  c #E5F5DD",
"|  c #E6F6DF",
" . c #7ECE59",
".. c #84D060",
"X. c white",
/* pixels */
"                                                                                                                                ",
"                                                                                                                                ",
"                                                                                                                                ",
"                                                                                                                                ",
"                                                                                                                                ",
"                                                                                                                                ",
"                                                                                                                                ",
"                                                                                                                                ",
"                                                                                                                                ",
"                                                                                                                                ",
"                                                                                                                                ",
"                                                                                                                                ",
"                                                                                                                                ",
"                                                                                                                                ",
"                                                                                                                                ",
"                                                                                                                                ",
"                                                                                                                                ",
"                                                                                                                                ",
"                                                                                                                                ",
"                                                                                                                                ",
"                                                                                                                                ",
"                                                    .                   .                                                       ",
"                                                  X o O             . + @ + .                                                   ",
"                                                # $ % & *           = - ; : =                                                   ",
"                                                * > , < =           * : 1 2 =                                                   ",
"                                                * 3 4 5 =           * : , 6 7 8                                                 ",
"                                                * 3 4 5 =           = 2 9 0 q w                                                 ",
"                                                * 3 4 e r = = * t y u : ; i p a                                                 ",
"                                                * > s d w f g h j k l z 4 & x #                                                 ",
"                                                . c v k b n m M N B V 5 1 2 *                                                   ",
"                                                            C . t = Z 2 1 2 *                                                   ",
"                                                      A S S S S S S O D F G .                                                   ",
"                                                    H J K L L L L L L L P I #                                                   ",
"                                                    y U Y T R R R R E W ; : =                                                   ",
"                                                    y Q b # = = = = Z ! ~ 2 *                                                   ",
"                                                    y ^ k . * * * * / ( ~ 2 *                                                   ",
"                                                    y U ) ! _ _ _ _ $ ` 1 2 *                                                   ",
"                                                    H ' ] [ { { { { { } | a *                                                   ",
"                                                       .................G O                                                     ",
"                                                      . . . . . . . . . .                                                       ",
"                                                                                                                                ",
"                                                                                                                                ",
"                                                                                                                                ",
"                                                                                                                                ",
"                                                                                                                                ",
"                                                                                                                                ",
"                                                                                                                                ",
"                                                                                                                                ",
"                                                                                                                                ",
"                                                                                                                                ",
"                                                                                                                                ",
"                                                                                                                                ",
"                                                                                                                                ",
"                                                                                                                                ",
"                                                                                                                                ",
"                                                                                                                                ",
"                                                                                                                                ",
"                                                                                                                                ",
"                                                                                                                                ",
"                                                                                                                                ",
"                                                                                                                                ",
"                                                                                                                                ",
"                                                                                                                                ",
"                                                                                                                                "
};
