/* XPM */
static char *_ce7e72d2db2440fb7f37addb754b310WL3T3pWyvNNrZGKs[] = {
/* columns rows colors chars-per-pixel */
"64 64 65 1 ",
"  c #FF8181",
". c #FF8080",
"X c #FFA1A1",
"o c #FFC2C2",
"O c #FF8B8B",
"+ c #FF9090",
"@ c #FFBEBE",
"# c #FF9393",
"$ c #FF7F7F",
"% c #FFB8B8",
"& c #FFF2F2",
"* c #FF9292",
"= c #FF9E9E",
"- c #FFF6F6",
"; c #FFA3A3",
": c #FFB7B7",
"> c #FFF0F0",
", c #FF9D9D",
"< c #FFF4F4",
"1 c #FFA2A2",
"2 c #FFA0A0",
"3 c #FFF5F5",
"4 c #FF7D7D",
"5 c #FFB6B6",
"6 c #FFAEAE",
"7 c #FFFDFD",
"8 c #FFB0B0",
"9 c #FF8888",
"0 c #FFA6A6",
"q c #FFA9A9",
"w c #FFA7A7",
"e c #FFCECE",
"r c #FFCBCB",
"t c white",
"y c #FFCDCD",
"u c #FFD7D7",
"i c #FFDEDE",
"p c #FFDDDD",
"a c #FFEDED",
"s c #FFECEC",
"d c #FFEAEA",
"f c #FFEEEE",
"g c #FF9696",
"h c #FF8585",
"j c #FF8484",
"k c #FFBABA",
"l c #FF8282",
"z c #FFC9C9",
"x c #FFE7E7",
"c c #FFB5B5",
"v c #FFABAB",
"b c #FF8383",
"n c #FF8686",
"m c #FFBFBF",
"M c #FF8C8C",
"N c #FFC3C3",
"B c #FFEFEF",
"V c #FF7E7E",
"C c #FF8989",
"Z c #FFADAD",
"A c #FF8D8D",
"S c #FF9A9A",
"D c #FFF1F1",
"F c #FF9797",
"G c #FFAFAF",
/* pixels */
"                                                                ",
"                                                                ",
"                                                                ",
"                                                                ",
"                                                                ",
"                                                                ",
"                                                                ",
"                                                                ",
"                                                                ",
"                                                                ",
"                                                                ",
"                                                                ",
"                                                                ",
"                                                                ",
"                                                                ",
"                                                                ",
"                                                                ",
"                                                                ",
"                                                                ",
"                                                                ",
"                                                                ",
"                                     .                          ",
"                             .     .XoO.                        ",
"                           .+@#.   $%&*.                        ",
"                           $=-;$   $:>*.                        ",
"                           $,<1$   $:>*.                        ",
"                           $23;$ $$45>*.                        ",
"                           $678$90qwe>*.                        ",
"                            rty *uipa>*.                        ",
"                          .#sdfg.hhjk>*.                        ",
"                          lzsXxej. $:>*.                        ",
"                         .6-c$v<: .$:>*.                        ",
"                        b6<en.lm<%n$:>*.                        ",
"                       .2<uM. .hNB=V:>*.                        ",
"                        CZA.   .hSh$:>*.                        ",
"                         $.      . $:>*.                        ",
"                                   $:>*.                        ",
"                                   $%D*.                        ",
"                                   .FG9                         ",
"                                    .$                          ",
"                                                                ",
"                                                                ",
"                                                                ",
"                                                                ",
"                                                                ",
"                                                                ",
"                                                                ",
"                                                                ",
"                                                                ",
"                                                                ",
"                                                                ",
"                                                                ",
"                                                                ",
"                                                                ",
"                                                                ",
"                                                                ",
"                                                                ",
"                                                                ",
"                                                                ",
"                                                                ",
"                                                                ",
"                                                                ",
"                                                                ",
"                                                                "
};
